SplineFontDB: 3.2
FontName: StarFolkAlphabet
FullName: Star Folk Alphabet
FamilyName: Star Folk Alphabet
Weight: Regular
Copyright: Copyright (c) 2019, Unknown
UComments: "2019-10-5: Created with FontForge (http://fontforge.org)"
Version: 001.000
ItalicAngle: 0
UnderlinePosition: -100
UnderlineWidth: 50
Ascent: 800
Descent: 200
InvalidEm: 0
LayerCount: 2
Layer: 0 0 "Back" 1
Layer: 1 0 "Fore" 0
XUID: [1021 370 -376329042 11314256]
StyleMap: 0x0000
FSType: 0
OS2Version: 0
OS2_WeightWidthSlopeOnly: 0
OS2_UseTypoMetrics: 1
CreationTime: 1570310722
ModificationTime: 1585517649
OS2TypoAscent: 0
OS2TypoAOffset: 1
OS2TypoDescent: 0
OS2TypoDOffset: 1
OS2TypoLinegap: 90
OS2WinAscent: 0
OS2WinAOffset: 1
OS2WinDescent: 0
OS2WinDOffset: 1
HheadAscent: 0
HheadAOffset: 1
HheadDescent: 0
HheadDOffset: 1
OS2Vendor: 'PfEd'
MarkAttachClasses: 1
DEI: 91125
LangName: 1033
Encoding: UnicodeFull
UnicodeInterp: none
NameList: AGL For New Fonts
DisplaySize: -48
AntiAlias: 1
FitToEm: 0
WinInfo: 0 26 9
BeginPrivate: 1
BlueValues 7 [42 60]
EndPrivate
BeginChars: 1114112 62

StartChar: s
Encoding: 115 115 0
Width: 1000
VWidth: 0
Flags: HW
LayerCount: 2
Fore
SplineSet
536 614 m 4
 536 581 531 550 531 518 c 4
 531 488 535 461 540 435 c 5
 630 447 698 495 745 551 c 4
 774 586 797 628 811 677 c 5
 832 672 852 666 873 661 c 5
 850 570 799 502 735 451 c 4
 687 412 628 385 556 371 c 5
 600 236 672 103 849 103 c 4
 857 103 865 103 873 104 c 5
 876 83 878 61 881 40 c 5
 869 39 857 38 845 38 c 4
 636 38 557 190 498 339 c 5
 459 222 398 123 294 71 c 4
 255 51 208 39 152 39 c 4
 140 39 129 40 117 41 c 5
 119 62 121 84 123 105 c 5
 131 104 140 104 148 104 c 4
 314 104 378 217 427 334 c 4
 432 345 436 357 440 368 c 5
 323 386 239 439 178 514 c 4
 142 558 113 613 99 677 c 5
 120 682 142 686 163 691 c 5
 174 638 199 592 229 555 c 4
 278.703237983 491.628371571 354.55003813 441.661901131 456 432 c 4
 458 435 457 440 458 444 c 4
 460 448.5 460.25 453.5 460.25 458.875 c 0
 460.25 460.666666667 460.222222222 462.5 460.222222222 464.37037037 c 0
 460.222222222 468.111111111 460.333333333 472 461 476 c 4
 463 485 466 496 466 507 c 4
 466 540 464 574 464 609 c 4
 464 628 464 647 464 666 c 4
 464 693 465 718 466 744 c 5
 487 743 509 743 530 742 c 5
 530 737 530 732 530 727 c 5
 532 727 l 5
 533 689 536 652 536 614 c 4
EndSplineSet
Validated: 1
EndChar

StartChar: k
Encoding: 107 107 1
Width: 1000
VWidth: 0
Flags: H
LayerCount: 2
Fore
SplineSet
103 252 m 1
 127 274 l 1
 177 221 238 179 305 150 c 1
 477 700 l 2
 482 714 495 722 508 722 c 0
 512 722 516 722 520 720 c 0
 529 716 537 705 539 700 c 2
 726 146 l 1
 789 172 847 209 896 257 c 1
 919 234 l 1
 942 211 l 1
 833 105 683 42 530 40 c 0
 527 40 523 39 520 39 c 0
 355 39 192 110 79 230 c 1
 103 252 l 1
366 127 m 1
 416 112 468 104 520 104 c 0
 523 104 525 104 528 104 c 0
 574 105 620 112 664 124 c 1
 509 585 l 1
 366 127 l 1
EndSplineSet
Validated: 1
EndChar

StartChar: a
Encoding: 97 97 2
Width: 1000
VWidth: 0
Flags: H
LayerCount: 2
Fore
SplineSet
110 66 m 1
 78 67 l 1
 84 410 192 738 496 738 c 0
 497 738 l 0
 806 737 919 419 949 78 c 1
 917 75 l 1
 885 73 l 1
 856 399 756 646 533 671 c 1
 542 79 l 1
 509 78 l 1
 477 78 l 1
 468 672 l 1
 247 652 149 398 143 66 c 1
 110 66 l 1
EndSplineSet
Validated: 1
EndChar

StartChar: b
Encoding: 98 98 3
Width: 1000
VWidth: 0
Flags: HW
LayerCount: 2
Fore
SplineSet
88 523 m 5
 67.3333333333 530.333333333 46.6666666667 537.666666667 26 545 c 5
 57 636 101 687 155 699 c 4
 164 701 172 702 180 702 c 4
 240 702 288 654 314 605 c 5
 318 611 321 616 325 622 c 4
 385 706 492 743 589 743 c 4
 651 743 708 728 747 700 c 4
 902 588 927 487 927 352 c 4
 927 291 922 222 922 144 c 4
 922 132 921.555555556 120 921.555555556 107.703703704 c 0
 921.555555556 101.555555556 921.666666667 95.3333333333 922 89 c 5
 900.666666667 88.3333333333 879.333333333 87.6666666667 858 87 c 5
 857 110 856 131 856 152 c 4
 856 238 862 306 862 364 c 4
 862 480 840 554 709 648 c 4
 683 667 640 676 593 676 c 4
 515 676 424 648 378 584 c 4
 363 563 353 540 348 511 c 5
 339 512 l 5
 345 463 346 402 346 338 c 4
 346 247 342 154 341 95 c 5
 319.666666667 95.6666666667 298.333333333 96.3333333333 277 97 c 5
 278 155 280 246 280 333 c 4
 280 418 277 500 268 542 c 4
 257 590 211 637 177 637 c 4
 174 637 171 637 169 636 c 4
 149 631 117 607 88 523 c 5
EndSplineSet
Validated: 1
EndChar

StartChar: d
Encoding: 100 100 4
Width: 1000
VWidth: 0
Flags: H
LayerCount: 2
Fore
SplineSet
180 656 m 5
 211 665 l 5
 245 552 325 477 456 462 c 5
 456 693 l 5
 478 693 499 693 521 693 c 5
 521 465 l 5
 617 483 682 535 722 610 c 4
 731 627 738 645 743 663 c 5
 774 655 l 5
 805 646 l 5
 780 550 716 481 638 437 c 4
 605 419 565 405 522 399 c 5
 522 87 l 5
 500 87 479 87 457 87 c 5
 457 397 l 5
 350 402 274 454 220 514 c 4
 188 550 163 596 149 648 c 5
 180 656 l 5
EndSplineSet
Validated: 1
EndChar

StartChar: e
Encoding: 101 101 5
Width: 1000
VWidth: 0
Flags: H
LayerCount: 2
Fore
SplineSet
488 425 m 5
 468 416.333333333 448 407.666666667 428 399 c 5
 310 671 l 5
 330 679.666666667 350 688.333333333 370 697 c 5
 488 425 l 5
536 693 m 5
 556 701.666666667 576 710.333333333 596 719 c 5
 880 97 l 5
 860 88.3333333333 840 79.6666666667 820 71 c 5
 536 693 l 5
52 669 m 5
 72 677 92 685 112 693 c 5
 350 102 l 5
 330 94 310 86 290 78 c 5
 52 669 l 5
EndSplineSet
Validated: 1
EndChar

StartChar: f
Encoding: 102 102 6
Width: 1000
VWidth: 0
Flags: H
LayerCount: 2
Fore
SplineSet
104 250 m 1
 104 282 l 1
 115 282 155 278 208 278 c 0
 293 278 414 290 510 355 c 0
 688 475 705 645 705 703 c 0
 705 714 704 721 704 723 c 1
 736 728 l 1
 768 733 l 1
 768 730 770 719 770 703 c 0
 770 629 747 437 546 301 c 0
 435 226 300 212 208 212 c 0
 152 212 112 218 104 218 c 1
 104 250 l 1
90 96 m 1
 95 128 l 2
 96 128 169 117 269 117 c 0
 394 117 560 134 672 211 c 0
 867 344 866 693 866 734 c 1
 898 734 l 1
 930 734 l 1
 930 731 931 725 931 717 c 0
 931 633 921 302 708 157 c 0
 580 70 407 50 275 50 c 0
 166 50 85 64 85 64 c 2
 90 96 l 1
EndSplineSet
Validated: 33
EndChar

StartChar: g
Encoding: 103 103 7
Width: 1000
VWidth: 0
Flags: HW
LayerCount: 2
Fore
SplineSet
364 375 m 4
 364 436 414 486 475 486 c 4
 536 486 586 436 586 375 c 4
 586 314 536 264 475 264 c 4
 414 264 364 314 364 375 c 4
156 378 m 4
 156 237 297 114 481 114 c 4
 665 114 806 237 806 378 c 4
 806 519 665 642 481 642 c 4
 297 642 156 519 156 378 c 4
92 378 m 4
 92 565 271 708 481 708 c 4
 691 708 870 565 870 378 c 4
 870 191 691 48 481 48 c 4
 271 48 92 191 92 378 c 4
EndSplineSet
Validated: 1
EndChar

StartChar: h
Encoding: 104 104 8
Width: 1000
VWidth: 0
Flags: H
LayerCount: 2
Fore
SplineSet
484 723 m 1
 516 723 l 1
 516 371 l 1
 804 89 l 1
 781 66 l 1
 758 43 l 1
 516 280 l 1
 516 45 l 1
 484 45 l 1
 452 45 l 1
 452 265 l 1
 247 35 l 1
 223 57 l 1
 199 79 l 1
 452 363 l 1
 452 723 l 1
 484 723 l 1
EndSplineSet
Validated: 1
EndChar

StartChar: i
Encoding: 105 105 9
Width: 1000
VWidth: 0
Flags: HW
LayerCount: 2
Fore
SplineSet
856 88 m 1028
879 54 m 5
 873 56 865 57 856 60 c 4
 783 80 625 134 548 272 c 4
 522 318 498 431 478 527 c 5
 457 421 432 302 403 251 c 4
 365 182 317 137 273 109 c 4
 222 77 174 63 147 56 c 6
 127 50 l 5
 127 50 124 49 120 49 c 4
 108 49 83 52 83 74 c 4
 83 80 85 87 89 96 c 4
 107 137 180 126 239 164 c 4
 275 187 314 224 347 283 c 4
 374 331 426 729 473 734 c 4
 474 734 l 4
 523 734 585 338 604 304 c 4
 661 202 883 91 883 59 c 4
 883 57 882 55 879 54 c 5
EndSplineSet
Validated: 1
EndChar

StartChar: j
Encoding: 106 106 10
Width: 1000
VWidth: 0
Flags: HW
LayerCount: 2
Fore
SplineSet
169 273 m 5
 156 291 144 309 131 327 c 5
 399 516 l 5
 126 674 l 5
 137 693 147 711 158 730 c 5
 475 547 l 6
 482 542 488 538 490 529 c 6
 623 105 l 5
 907 80 l 5
 905 59 903 37 901 16 c 5
 595 43 l 6
 582 44 571 54 567 65 c 6
 441 467 l 5
 169 273 l 5
EndSplineSet
Validated: 1
EndChar

StartChar: m
Encoding: 109 109 11
Width: 1000
VWidth: 0
Flags: H
LayerCount: 2
Fore
SplineSet
789 736 m 4
 810 736 820 718 820 705 c 4
 820 695 816 687 816 687 c 5
 779 623 766 543 766 463 c 4
 766 327 804 191 829 131 c 5
 841 118 l 5
 850 105 l 5
 850 105 855 96 855 85 c 4
 855 73 849 58 823 54 c 4
 821 54 819 53 817 53 c 4
 758 53 731 205 714 310 c 4
 706 358 700 409 700 462 c 4
 700 521 707 580 725 638 c 5
 656 605 553 560 462 552 c 4
 457 552 451 551 446 551 c 4
 366 551 267 598 202 630 c 5
 218 564 227 485 227 399 c 4
 227 298 215 188 190 78 c 5
 126 92 l 5
 150 197 161 303 161 398 c 4
 161 511 146 610 119 678 c 4
 118 680 118 681 118 683 c 4
 118 691 126 694 141 694 c 4
 214 694 433 616 456 616 c 4
 565 625 727 736 789 736 c 4
EndSplineSet
Validated: 1
EndChar

StartChar: n
Encoding: 110 110 12
Width: 1000
VWidth: 0
Flags: H
LayerCount: 2
Fore
SplineSet
106 282 m 1
 133 301 l 1
 178 237 240 185 311 151 c 1
 320 628 l 1
 352 627 l 1
 384 626 l 1
 376 125 l 1
 405 116 434 110 464 107 c 1
 470 627 l 1
 502 627 l 1
 534 627 l 1
 529 105 l 1
 563 107 595 112 628 121 c 1
 626 621 l 1
 658 621 l 1
 690 621 l 1
 693 143 l 1
 764 174 828 223 875 284 c 1
 901 264 l 1
 927 244 l 1
 829 116 670 39 509 39 c 0
 504 39 500 40 495 40 c 0
 331 45 173 129 79 263 c 1
 106 282 l 1
EndSplineSet
Validated: 1
EndChar

StartChar: p
Encoding: 112 112 13
Width: 1000
VWidth: 0
Flags: H
LayerCount: 2
Fore
SplineSet
699 252 m 1
 732 75 l 1
 700 69 l 1
 668 63 l 1
 640 214 l 1
 405 220 l 2
 391 220 377 230 374 245 c 2
 299 605 l 2
 299 607 299 609 299 611 c 0
 299 624 307 638 321 643 c 2
 573 727 l 2
 576 728 578 728 581 728 c 0
 595 728 612 720 615 702 c 2
 698 258 l 1
 699 252 l 1
586 505 m 1
 394 467 l 1
 409 399 l 1
 602 418 l 1
 586 505 l 1
574 568 m 1
 558 653 l 1
 369 590 l 1
 381 531 l 1
 574 568 l 1
614 354 m 1
 422 335 l 1
 433 284 l 1
 628 279 l 1
 614 354 l 1
EndSplineSet
Validated: 1
EndChar

StartChar: c
Encoding: 99 99 14
Width: 1000
VWidth: 0
Flags: HW
LayerCount: 2
Fore
SplineSet
742 708 m 1
 710 705 l 1
 710 705 709 708 709 711 c 0
 709 721 712 742 736 742 c 0
 740 742 745 741 750 740 c 0
 789 731 844 545 844 369 c 0
 844 319 840 269 829 224 c 0
 818 178 800 134 771 97 c 0
 717 28 639 6 559 6 c 0
 473 6 386 31 326 51 c 0
 322 52 317 54 313 55 c 1
 335 117 l 1
 339 116 342 114 346 113 c 0
 409 92 486 72 557 72 c 0
 622 72 682 89 719 137 c 0
 762 192 777 271 777 352 c 0
 777 502 728 660 715 691 c 1
 742 708 l 1
EndSplineSet
Validated: 1
EndChar

StartChar: r
Encoding: 114 114 15
Width: 1000
VWidth: 0
Flags: H
LayerCount: 2
Fore
SplineSet
208 87 m 1
 192 115 l 1
 673 393 l 1
 165 677 l 1
 181 705 l 1
 197 733 l 1
 755 421 l 2
 759 419 763 415 766 411 c 0
 770 405 771 399 771 393 c 0
 771 382 765 371 755 365 c 2
 224 59 l 1
 208 87 l 1
EndSplineSet
Validated: 1
EndChar

StartChar: t
Encoding: 116 116 16
Width: 830
VWidth: 0
Flags: HW
LayerCount: 2
Fore
SplineSet
190 165 m 0
 190 119 240 72 314 72 c 0
 387 72 436 118 437 164 c 1
 417 184 403 208 395 235 c 1
 374 249 347 258 314 258 c 0
 240 258 190 211 190 165 c 0
144 426 m 0
 144 517 223 588 317 588 c 0
 409 588 488 519 490 430 c 1
 510 439 533 444 557 444 c 0
 649 444 724 370 724 279 c 0
 724 188 649 114 557 114 c 0
 536 114 516 118 497 125 c 1
 476 53 397 6 314 6 c 0
 216 6 126 71 126 165 c 0
 126 224 161 271 211 298 c 1
 170 327 144 373 144 426 c 0
208 426 m 0
 208 375 255 330 317 330 c 0
 379 330 426 375 426 426 c 0
 426 477 379 522 317 522 c 0
 255 522 208 477 208 426 c 0
455 271 m 0
 477 251 492 226 499 197 c 1
 515 186 535 180 557 180 c 0
 615 180 660 224 660 279 c 0
 660 334 615 378 557 378 c 0
 499 378 454 334 454 279 c 0
 454 276 455 274 455 271 c 0
EndSplineSet
Validated: 1
EndChar

StartChar: w
Encoding: 119 119 17
Width: 1000
VWidth: 0
Flags: HW
LayerCount: 2
Fore
SplineSet
438 89 m 2
 167 361 l 2
 161 367 158 375 158 383 c 0
 158 392 162 402 167 407 c 2
 445 685 l 2
 451 691 459 694 467 694 c 0
 476 694 486 690 491 685 c 2
 762 413 l 2
 768 407 771 399 771 391 c 0
 771 382 767 372 762 367 c 2
 484 89 l 2
 478 83 470 80 462 80 c 0
 453 80 443 84 438 89 c 2
461 158 m 1
 693 390 l 1
 468 616 l 1
 236 384 l 1
 461 158 l 1
EndSplineSet
Validated: 1
EndChar

StartChar: x
Encoding: 120 120 18
Width: 1000
VWidth: 0
Flags: H
LayerCount: 2
Fore
SplineSet
127 660 m 1
 127 692 l 1
 862 695 l 1
 862 663 l 1
 862 631 l 1
 127 628 l 1
 127 660 l 1
304 60 m 1
 272 60 l 1
 275 558 l 1
 307 558 l 1
 339 558 l 1
 336 60 l 1
 304 60 l 1
682 51 m 1
 650 51 l 1
 653 564 l 1
 685 564 l 1
 717 564 l 1
 714 51 l 1
 682 51 l 1
EndSplineSet
Validated: 1
EndChar

StartChar: aacute
Encoding: 225 225 20
Width: 1000
VWidth: 0
Flags: HW
LayerCount: 2
Fore
SplineSet
78 525 m 1
 110 524 l 1
 110 517 110 510 110 503 c 0
 110 336 184 266 294 254 c 0
 298 254 301 254 305 254 c 0
 445 254 436 556 663 557 c 0
 664 558 l 0
 794 558 897 430 914 197 c 1
 882 195 l 1
 850 193 l 1
 834 415 742 493 664 493 c 0
 663 493 l 0
 527 492 510 188 310 188 c 0
 303 188 296 189 288 190 c 0
 141 206 45 313 45 505 c 0
 45 512 46 519 46 526 c 1
 78 525 l 1
EndSplineSet
Validated: 1
EndChar

StartChar: eacute
Encoding: 233 233 21
Width: 1000
VWidth: 0
Flags: HW
LayerCount: 2
Fore
SplineSet
149 53 m 5
 138 72 128 90 117 109 c 5
 639 399 l 5
 113 643 l 5
 122 662 132 682 141 701 c 5
 692 447 l 5
 882 746 l 5
 900 735 918 723 936 712 c 5
 743 406 l 5
 743 405 743.124427242 403.855023849 743.124427242 402.795077801 c 0
 743.124427242 391.047947455 738 380 727 374 c 6
 149 53 l 5
EndSplineSet
Validated: 1
EndChar

StartChar: iacute
Encoding: 237 237 22
Width: 1000
VWidth: 0
Flags: HW
LayerCount: 2
Fore
SplineSet
328 720 m 1
 360 721 l 1
 371 402 l 1
 541 519 l 2
 547 523 553 524 559 524 c 0
 570 524 581 518 587 508 c 0
 590 503 591 497 591 492 c 2
 588 90 l 1
 556 90 l 1
 524 90 l 1
 526 430 l 1
 358 315 l 2
 354 312 349 311 344 310 c 0
 343 310 341 310 340 310 c 0
 323 310 309 324 308 341 c 2
 296 719 l 1
 328 720 l 1
EndSplineSet
Validated: 1
EndChar

StartChar: uni1E31
Encoding: 7729 7729 23
Width: 1000
VWidth: 0
Flags: HW
LayerCount: 2
Fore
SplineSet
763 690 m 1
 763 658 l 1
 470 658 l 1
 470 643 469 627 469 611 c 0
 469 551 472 482 472 413 c 0
 472 277 462 136 401 34 c 1
 373 51 l 1
 345 68 l 1
 398 156 405 294 405 432 c 0
 405 484 404 535 404 584 c 0
 404 622 405 659 407 692 c 0
 408 707 421 722 439 722 c 2
 763 722 l 1
 763 690 l 1
EndSplineSet
Validated: 1
EndChar

StartChar: uni1E3F
Encoding: 7743 7743 24
Width: 1000
VWidth: 0
Flags: HW
LayerCount: 2
Fore
SplineSet
61 72 m 1
 64 104 l 1
 65 104 66 104 67 104 c 0
 82 104 84 117 117 158 c 0
 253 330 227 723 503 723 c 0
 508 723 514 722 519 722 c 0
 806 707 732 318 845 134 c 0
 865 102 880 89 904 89 c 0
 907 89 909 89 912 89 c 1
 920 25 l 1
 915 24 910 24 905 24 c 0
 850 24 813 61 789 100 c 0
 636 349 738 647 515 658 c 0
 511 658 507 658 503 658 c 0
 288 658 349 348 167 118 c 0
 151 97 127 39 67 39 c 0
 64 39 61 40 58 40 c 1
 61 72 l 1
EndSplineSet
Validated: 1
EndChar

StartChar: eng
Encoding: 331 331 25
Width: 1000
VWidth: 0
Flags: HW
LayerCount: 2
Fore
SplineSet
115 90 m 1
 95 115 l 1
 449 403 l 1
 103 692 l 1
 124 717 l 1
 145 742 l 1
 500 444 l 1
 872 745 l 1
 892 720 l 1
 912 695 l 1
 551 402 l 1
 901 109 l 1
 880 84 l 1
 859 59 l 1
 500 360 l 1
 135 65 l 1
 115 90 l 1
EndSplineSet
Validated: 1
EndChar

StartChar: nacute
Encoding: 324 324 26
Width: 1000
VWidth: 0
Flags: HW
LayerCount: 2
Fore
SplineSet
769 756 m 1
 777 724 l 1
 707 706 643 665 599 607 c 0
 557 552 533 481 533 412 c 0
 533 409 533 406 533 403 c 0
 535 326 567 249 620 193 c 0
 673 137 746 100 823 92 c 1
 820 60 l 1
 817 28 l 1
 724 37 636 81 572 149 c 0
 546 177 525 209 508 243 c 1
 503 227 l 1
 68 374 l 2
 60 377 52 384 48 393 c 0
 47 397 46 401 46 405 c 0
 46 419 55 432 69 436 c 2
 483 559 l 1
 489 537 l 1
 502 576 522 613 547 646 c 0
 600 716 676 767 761 788 c 1
 769 756 l 1
485 302 m 1
 475 334 470 367 469 401 c 0
 469 405 468 408 468 412 c 0
 468 438 471 464 476 489 c 1
 185 403 l 1
 485 302 l 1
EndSplineSet
Validated: 1
EndChar

StartChar: uni01F5
Encoding: 501 501 27
Width: 1000
VWidth: 0
Flags: HW
LayerCount: 2
Fore
SplineSet
366 406 m 5
 438 311 512 268 597 268 c 4
 636 268 677 277 721 294 c 4
 753 306 773 348 773 397 c 4
 773 460 739 524 697 540 c 4
 654 557 613 566 575 566 c 4
 493 566 422 522 366 406 c 5
299 414 m 4
 299 509 216 592 121 592 c 5
 121 613 121 635 121 656 c 5
 185 656 247 630 292 585 c 4
 316 561 335 532 347 501 c 5
 411 592 493 630 579 630 c 4
 626 630 673 619 721 600 c 4
 769 581 801 539 819 493 c 4
 831 463 838 428 838 394 c 4
 838 326 812 260 745 234 c 4
 695 215 646 204 599 204 c 4
 507 204 422 243 347 326 c 5
 336 298 320 272 299 249 c 4
 258 204 199 176 138 172 c 5
 137 193 135 215 134 236 c 5
 217 242 286 309 297 390 c 4
 294 394 292 398 289 402 c 5
 298 409 l 6
 298 411 299 412 299 414 c 4
EndSplineSet
Validated: 1
EndChar

StartChar: uni1E8B
Encoding: 7819 7819 28
Width: 1000
VWidth: 0
Flags: HW
LayerCount: 2
Fore
SplineSet
196 216 m 1
 212 244 l 1
 433 116 l 1
 431 732 l 1
 463 732 l 1
 495 732 l 1
 498 116 l 1
 726 247 l 1
 742 219 l 1
 758 191 l 1
 482 32 l 2
 477 29 472 28 466 28 c 0
 461 28 455 29 450 32 c 2
 180 188 l 1
 196 216 l 1
EndSplineSet
Validated: 1
EndChar

StartChar: y
Encoding: 121 121 29
Width: 1000
VWidth: 0
Flags: HW
LayerCount: 2
Fore
SplineSet
476 769 m 1
 508 769 l 1
 509 738 l 1
 602 731 686 693 746 634 c 1
 867 721 l 1
 886 695 l 1
 905 669 l 1
 788 584 l 1
 821 535 840 477 840 415 c 0
 840 343 815 278 772 225 c 1
 923 113 l 1
 904 87 l 1
 885 61 l 1
 726 178 l 1
 668 129 593 98 510 92 c 1
 510 41 l 1
 478 41 l 1
 446 41 l 1
 445 92 l 1
 363 99 289 131 232 180 c 1
 95 81 l 1
 76 107 l 1
 57 133 l 1
 186 227 l 1
 144 280 120 344 120 415 c 0
 120 479 140 537 174 587 c 1
 69 665 l 1
 88 691 l 1
 107 717 l 1
 216 636 l 1
 274 692 355 730 444 738 c 1
 444 769 l 1
 476 769 l 1
445 157 m 1
 445 334 l 1
 286 219 l 1
 329 186 384 163 445 157 c 1
444 673 m 1
 376 666 315 638 270 597 c 1
 444 468 l 1
 444 673 l 1
510 157 m 1
 572 163 628 185 672 218 c 1
 510 338 l 1
 510 157 l 1
509 673 m 1
 509 462 l 1
 693 595 l 1
 646 638 582 667 509 673 c 1
227 548 m 1
 200 509 184 463 184 415 c 0
 184 360 205 308 239 265 c 1
 425 401 l 1
 227 548 l 1
720 264 m 1
 755 307 776 359 776 415 c 0
 776 462 761 506 735 545 c 1
 535 400 l 1
 720 264 l 1
EndSplineSet
Validated: 1
EndChar

StartChar: racute
Encoding: 341 341 30
Width: 1000
VWidth: 0
Flags: HW
LayerCount: 2
Fore
SplineSet
142 675 m 1
 163 700 l 1
 847 118 l 1
 826 93 l 1
 805 68 l 1
 121 650 l 1
 142 675 l 1
EndSplineSet
Validated: 1
EndChar

StartChar: equal
Encoding: 61 61 31
Width: 760
Flags: HW
LayerCount: 2
Fore
SplineSet
644 277 m 6
 664 277 681 260 681 240 c 4
 681 220 664 203 644 203 c 6
 116 199 l 6
 96 199 79 216 79 236 c 4
 79 256 96 273 116 273 c 6
 644 277 l 6
673 488 m 4
 673 468 656.412388179 450.49822164 636.537146365 450.49822164 c 0
 636.358294653 450.49822164 636 451 636 451 c 6
 135 459 l 6
 115 459 99 476 99 496 c 4
 99 516 115.587611821 533.50177836 135.462853635 533.50177836 c 0
 135.641705347 533.50177836 136 533 136 533 c 6
 637 525 l 6
 657 525 673 508 673 488 c 4
EndSplineSet
Validated: 1
EndChar

StartChar: question
Encoding: 63 63 32
Width: 760
Flags: HW
LayerCount: 2
Fore
SplineSet
495 616 m 0
 495 653.674281147 478.278105702 691 441 691 c 0
 430 691 416 687 402 680 c 0
 378 668 355 648 338 628 c 0
 311 595 284 561 259 526 c 0
 252 517 241 511 229 511 c 0
 208.589614422 511 191 527.551611125 191 548 c 0
 191 556 194 563 199 570 c 0
 225 606 252 642 280 676 c 0
 304.343332712 704.400554831 333.203637211 730.764714213 369 748 c 0
 391 759 415 766 441 766 c 0
 522.765207372 766 570 690.639511248 570 616 c 0
 570 535 547 449 486 388 c 0
 461.947111951 363.947111951 431.328897188 341.328897188 406 316 c 0
 398 308 391 301 387 295 c 0
 385 292 383 289 382 288 c 2
 382 286 l 2
 382 276 388 262 398 242 c 0
 402 235 406 226 406 216 c 0
 406 195.013602489 389.770511077 179 369 179 c 0
 359 179 349 183 342 190 c 0
 337 195 335 201 331 208 c 0
 322 226 307 252 307 285 c 0
 307 307 314 320 322 333 c 0
 343.925173023 364.669694366 383.471667731 397.787709265 410 421 c 0
 421 431 425 433 433 441 c 0
 475 483 494 547 495 616 c 0
365 80 m 0
 365 100 383 116 405 116 c 0
 427 116 445 100 445 80 c 0
 445 60 427 44 405 44 c 0
 383 44 365 60 365 80 c 0
EndSplineSet
Validated: 1
EndChar

StartChar: greater
Encoding: 62 62 33
Width: 756
Flags: HW
LayerCount: 2
Fore
SplineSet
123 572 m 4
 123 592 140 609 160 609 c 4
 164 609 169 609 173 607 c 6
 609 443 l 6
 622 438 633 424 633 408 c 4
 633 393 624 379 611 374 c 6
 159 178 l 6
 154 176 149 175 144 175 c 4
 124 175 107 192 107 212 c 4
 107 227 116 241 129 246 c 6
 496 406 l 5
 147 537 l 6
 134 542 123 556 123 572 c 4
EndSplineSet
Validated: 1
EndChar

StartChar: less
Encoding: 60 60 34
Width: 764
Flags: HW
LayerCount: 2
Fore
SplineSet
589 595 m 0
 608.921843002 595 626 577.921567935 626 558 c 0
 626 542.19901706 615.836747712 528.134699085 603 523 c 2
 280 392 l 1
 616 240 l 2
 627.901174781 234.04941261 638 221.325332601 638 206 c 0
 638 185.589614422 621.448388875 168 601 168 c 0
 596 168 590 170 585 172 c 2
 169 360 l 2
 156.459071443 366.270464279 147 377.835017708 147 394 c 0
 147 409.823498114 158.245937263 423.898374905 171 429 c 2
 575 593 l 2
 580 595 584 595 589 595 c 0
EndSplineSet
Validated: 1
EndChar

StartChar: colon
Encoding: 58 58 35
Width: 756
Flags: HW
LayerCount: 2
Fore
SplineSet
328 684 m 1
 448 684 l 1
 448 524 l 1
 328 524 l 1
 328 684 l 1
324 290 m 1
 454 292 l 1
 454 126 l 1
 324 124 l 1
 324 290 l 1
EndSplineSet
Validated: 1
EndChar

StartChar: dollar
Encoding: 36 36 36
Width: 760
Flags: HW
LayerCount: 2
Fore
SplineSet
258 517 m 4
 258 510 256 501 256 495 c 4
 256 471 267 456 280 443 c 4
 298 425 328 410 358 398 c 5
 361 620 l 5
 359 619 358 618 356 617 c 4
 324 606 291 592 273 574 c 4
 263 564 256 554 256 537 c 4
 256 531 258 523 258 517 c 4
356 319 m 5
 283 342 181 389 181 496 c 4
 181 503 182 510 183 517 c 4
 182 524 181 530 181 536 c 4
 181 626 267 666 329 687 c 4
 339 693 350 698 363 701 c 5
 363 718 l 6
 363 738 381 755 401 755 c 4
 421 755 438 737 438 717 c 4
 438 716 l 6
 438 690 l 5
 489 674 537 652 584 632 c 4
 597 627 606 612 606 597 c 4
 606 577 589 560 569 560 c 4
 564 560 559 561 554 563 c 4
 516 579 475 597 436 611 c 5
 432 376 l 5
 447 373 462 371 477 371 c 4
 524 371 561 347 586 322 c 4
 606 302 622 277 622 243 c 4
 622 196 593 162 570 139 c 4
 554 123 538 109 522 93 c 4
 495 66 460 56 427 53 c 5
 426 32 l 6
 426 12 409 -4 389 -4 c 4
 369 -4 351 13 351 33 c 4
 351 34 l 6
 352 56 l 5
 335 58 319 61 305 64 c 4
 259 73 205 86 162 129 c 4
 152 139 145 148 135 158 c 4
 123 170 108 187 104 211 c 6
 100 230 l 6
 100 232 99 235 99 237 c 4
 99 257 117 275 137 275 c 4
 166 275 173 250 178 224 c 5
 184 216 198 202 206 192 c 4
 236 154 291 141 353 132 c 5
 356 319 l 5
547 243 m 4
 547 244 547 244 547 245 c 4
 547 248 544 258 533 269 c 4
 521 281 499 296 477 296 c 4
 461 296 446 298 431 300 c 5
 428 129 l 5
 457 133 465 143 478 156 c 4
 499 177 547 216 547 243 c 4
EndSplineSet
Validated: 1
EndChar

StartChar: percent
Encoding: 37 37 37
Width: 752
Flags: HW
LayerCount: 2
Fore
SplineSet
663 697 m 4
 683 697 701 679 701 659 c 4
 701 649 697 639 689 632 c 6
 129 112 l 6
 122 105 112 102 103 102 c 4
 83 102 66 119 66 139 c 4
 66 149 70 160 78 167 c 6
 638 687 l 6
 645 694 654 697 663 697 c 4
91 599 m 4
 91 659 141 707 203 707 c 4
 265 707 315 659 315 599 c 4
 315 539 265 491 203 491 c 4
 141 491 91 539 91 599 c 4
439 183 m 4
 439 243 487 291 547 291 c 4
 607 291 655 243 655 183 c 4
 655 123 607 75 547 75 c 4
 487 75 439 123 439 183 c 4
EndSplineSet
Validated: 1
EndChar

StartChar: exclam
Encoding: 33 33 38
Width: 756
Flags: HW
LayerCount: 2
Fore
SplineSet
300 188 m 1
 420 188 l 1
 420 88 l 1
 300 88 l 1
 300 188 l 1
315 721 m 2
 315 740 332 757 352 757 c 0
 372 757 389 740 389 720 c 2
 399 326 l 2
 399 306 381 289 361 289 c 0
 341 289 324 306 324 326 c 2
 324 327 l 1
 315 720 l 1
 315 721 l 2
EndSplineSet
Validated: 1
EndChar

StartChar: parenleft
Encoding: 40 40 39
Width: 744
Flags: HW
LayerCount: 2
Fore
SplineSet
473 112 m 0
 473 91.013602489 456.770511077 75 436 75 c 0
 430 75 424 76 418 79 c 0
 316.347140451 132.938252006 215.602557715 227.943630625 197 347 c 0
 195 359 194 373 194 385 c 0
 194 454 223 521 281 579 c 0
 318 616 367 649 428 678 c 0
 433 680 438 682 444 682 c 0
 465.293609929 682 481 665.498360185 481 644 c 0
 481 627.768393828 472.508918676 617.254459338 460 611 c 0
 368 567 269 491 269 385 c 0
 269 376 270 368 271 359 c 0
 285.388747894 266.500906399 371.231878799 190.271320642 454 146 c 0
 464.831323606 138.779117596 473 127.767734838 473 112 c 0
EndSplineSet
Validated: 1
EndChar

StartChar: parenright
Encoding: 41 41 40
Width: 752
Flags: HW
LayerCount: 2
Fore
SplineSet
336 70 m 0
 316.078156998 70 299 87.0784320652 299 107 c 0
 299 117 303 128 311 135 c 0
 330 152 348 169 364 185 c 0
 445 266 480 329 487 381 c 0
 488 388 488 394 488 401 c 0
 488 457 457 512 392 577 c 0
 372 597 349 617 324 638 c 0
 316 645 311 656 311 667 c 0
 311 687.410385578 327.551611125 705 348 705 c 0
 357 705 365 702 372 696 c 0
 398 674 423 652 445 630 c 0
 515 560 563 486 563 401 c 0
 563 391 562 381 561 371 c 0
 551 294 503 217 417 131 c 0
 400 114 381 97 361 79 c 0
 354 73 345 70 336 70 c 0
EndSplineSet
Validated: 1
EndChar

StartChar: asterisk
Encoding: 42 42 41
Width: 1000
Flags: H
LayerCount: 2
Fore
SplineSet
718 179 m 0
 718 158.052078168 700.957078129 141 680 141 c 0
 671 141 662 144 655 151 c 2
 491 306 l 1
 494 103 l 2
 494 82.0520781677 476.957078129 65 456 65 c 0
 436.078156998 65 419 82.5643828065 419 102 c 2
 416 282 l 1
 292 153 l 2
 285 145 274 141 264 141 c 0
 243.553761975 141 227 158.582929044 227 179 c 0
 227 188 230 198 237 205 c 2
 368 340 l 1
 186 333 l 1
 184 333 l 2
 163.553761975 333 147 350.582929044 147 371 c 0
 147 390.384616823 164.067354344 408 183 408 c 2
 376 415 l 1
 207 575 l 2
 199 582 195 593 195 603 c 0
 195 622.921843002 212.078432065 640 232 640 c 0
 241 640 251 637 258 630 c 2
 414 483 l 1
 411 675 l 2
 411 694.921843002 428.078432065 712 448 712 c 0
 468.410385578 712 486 694.968400111 486 675 c 2
 489 466 l 1
 653 637 l 2
 660 645 670 648 680 648 c 0
 700.410385578 648 718 631.448388875 718 611 c 0
 718 602 715 592 708 585 c 2
 550 421 l 1
 735 428 l 1
 736 428 l 2
 756.410385578 428 774 411.448388875 774 391 c 0
 774 371.140169977 757.451984125 353 738 353 c 2
 558 347 l 1
 706 206 l 2
 714 199 718 189 718 179 c 0
EndSplineSet
Validated: 1
EndChar

StartChar: plus
Encoding: 43 43 42
Width: 752
Flags: HW
LayerCount: 2
Fore
SplineSet
124 347 m 2
 103.553761975 347 87 364.582929044 87 385 c 0
 87 405.446238025 104.582929044 422 125 422 c 2
 353 421 l 1
 351 649 l 2
 351 669.446238025 368.582929044 686 389 686 c 0
 408.921843002 686 426 668.921567935 426 649 c 2
 428 420 l 1
 661 418 l 2
 680.921843002 418 698 400.921567935 698 381 c 0
 698 360.589614422 681.448388875 343 661 343 c 2
 429 345 l 1
 430 129 l 2
 430 108.589614422 413.448388875 91 393 91 c 0
 372.589614422 91 355 107.551611125 355 128 c 2
 354 346 l 1
 124 347 l 2
EndSplineSet
Validated: 1
EndChar

StartChar: bar
Encoding: 124 124 43
Width: 508
Flags: HW
LayerCount: 2
Fore
SplineSet
211 689 m 2
 211 709.822852722 226.704796881 725 248 725 c 0
 269.817686667 725 285 709.835724193 285 688 c 2
 277 111 l 2
 277 90.1771472779 261.295203119 75 240 75 c 0
 218.182313333 75 203 90.1642758072 203 112 c 2
 211 689 l 2
EndSplineSet
Validated: 1
EndChar

StartChar: asciicircum
Encoding: 94 94 44
Width: 748
Flags: HW
LayerCount: 2
Fore
SplineSet
697 404 m 0
 697 382.182313333 681.835724193 367 660 367 c 0
 650 367 640 370 633 378 c 2
 384 638 l 1
 135 385 l 2
 128 378 118 375 108 375 c 0
 86.182313333 375 71 390.164275807 71 412 c 0
 71 422 74 431 81 438 c 2
 357 719 l 2
 364 726 374 729 384 729 c 0
 394 729 404 726 411 718 c 2
 687 430 l 2
 694 423 697 413 697 404 c 0
EndSplineSet
Validated: 1
EndChar

StartChar: bracketleft
Encoding: 91 91 45
Width: 752
Flags: HW
LayerCount: 2
Fore
SplineSet
483 702 m 6
 504.48695238 702 521 686.309600239 521 665 c 4
 521 644.243155126 504.516834491 628 484 628 c 6
 316 624 l 5
 302 112 l 5
 470 118 l 5
 471 118 l 6
 492.48695238 118 509 102.309600239 509 81 c 4
 509 60.7931149235 493.001530896 44 473 44 c 6
 265 36 l 5
 263 36 l 6
 242.013602489 36 226 52.2294889233 226 73 c 6
 226 74 l 5
 242 662 l 6
 242 681.761856358 259.016986502 698 279 698 c 6
 483 702 l 6
EndSplineSet
Validated: 1
EndChar

StartChar: bracketright
Encoding: 93 93 46
Width: 756
Flags: HW
LayerCount: 2
Fore
SplineSet
267 104 m 4
 267 125.48695238 282.690399761 142 304 142 c 6
 415 142 l 5
 418 567 l 5
 308 567 l 6
 287.243155126 567 271 583.009178586 271 604 c 4
 271 625.48695238 286.690399761 642 308 642 c 6
 456 642 l 6
 477.293609929 642 493 625.498360185 493 604 c 6
 489 104 l 6
 489 83.5013083332 472.770511077 67 452 67 c 6
 304 67 l 6
 283.243155126 67 267 83.0091785861 267 104 c 4
EndSplineSet
Validated: 1
EndChar

StartChar: braceleft
Encoding: 123 123 47
Width: 756
Flags: HW
LayerCount: 2
Fore
SplineSet
173 451 m 0
 184 451 196 446 209 446 c 0
 243 446 256 467 268 492 c 0
 282 520 292 561 306 592 c 0
 333 651 396 673 441 709 c 0
 448 714 456 717 464 717 c 0
 484 717 501 700 501 680 c 0
 501 669 496 658 487 651 c 0
 457 627 414 606 390 582 c 0
 383 575 378 568 375 561 c 0
 355 510 342 452 306 413 c 1
 340 380 347 337 347 281 c 0
 347 262 345 244 345 227 c 0
 345 195 360 181 378 165 c 1
 450 161 l 2
 469 160 485 144 485 124 c 0
 485 104 468 87 448 87 c 0
 447 87 447 87 446 87 c 2
 362 91 l 2
 354 91 347 94 341 99 c 0
 305 128 270 164 270 228 c 0
 270 245 272 262 272 280 c 0
 272 317 266 361 240 367 c 0
 228 367 212 370 197 372 c 0
 166 374 134 379 134 414 c 0
 134 437 152 451 173 451 c 0
EndSplineSet
Validated: 1
EndChar

StartChar: braceright
Encoding: 125 125 48
Width: 752
Flags: HW
LayerCount: 2
Fore
SplineSet
168 115 m 0
 168 135 185 152 205 152 c 0
 207 152 210 151 212 151 c 2
 249 144 l 1
 257 144 l 2
 272 144 292 152 317 163 c 0
 337 172 360 183 387 188 c 0
 396 190 398 196 402 209 c 0
 410 233 413 269 420 297 c 1
 423 334 441 370 473 385 c 1
 402 409 349 472 329 544 c 0
 317 581 273 608 232 614 c 0
 215 617 200 632 200 651 c 0
 200 671 217 688 237 688 c 0
 239 688 241 688 243 688 c 0
 311 678 383 632 401 565 c 0
 416 509 466 450 532 450 c 0
 552 450 574 458 596 458 c 0
 622 458 646 445 646 417 c 0
 646 387 620 375 602 365 c 0
 581 353 537 333 521 323 c 0
 516 320 507 319 503 315 c 0
 500 312 495 304 494 288 c 0
 493 274 489 263 486 244 c 0
 477 185 461 124 399 114 c 0
 354 106 316 69 257 69 c 2
 245 69 l 2
 243 69 240 70 238 70 c 2
 198 78 l 2
 182 81 168 97 168 115 c 0
EndSplineSet
Validated: 1
EndChar

StartChar: backslash
Encoding: 92 92 49
Width: 740
Flags: HW
LayerCount: 2
Fore
SplineSet
657 85 m 4
 657 64.013602489 640.770511077 48 620 48 c 4
 610 48 599 53 592 61 c 6
 108 609 l 6
 102 616 99 624 99 633 c 4
 99 654.48695238 114.690399761 671 136 671 c 4
 146 671 157 666 164 658 c 6
 648 110 l 6
 654 103 657 94 657 85 c 4
EndSplineSet
Validated: 1
EndChar

StartChar: period
Encoding: 46 46 50
Width: 752
Flags: HW
LayerCount: 2
Fore
SplineSet
244 240 m 5
 500 240 l 5
 500 88 l 5
 244 88 l 5
 244 240 l 5
EndSplineSet
Validated: 1
EndChar

StartChar: comma
Encoding: 44 44 51
Width: 744
Flags: HW
LayerCount: 2
Fore
SplineSet
279 42 m 0
 258.052078168 42 241 59.042921871 241 80 c 0
 241 90 245 100 253 107 c 2
 409 251 l 2
 416 258 426 261 435 261 c 0
 454.921843002 261 472 243.921567935 472 224 c 0
 472 214 468 203 460 196 c 2
 304 52 l 2
 297 45 288 42 279 42 c 0
EndSplineSet
Validated: 1
EndChar

StartChar: zero
Encoding: 48 48 52
Width: 760
Flags: HW
LayerCount: 2
Fore
SplineSet
357 733 m 4
 351 733 345 734 337 734 c 6
 330 734 l 5
 323 733 301 729 294 715 c 4
 226 628 147 535 123 412 c 4
 116 379 111 348 111 317 c 4
 111 243 136 176 187 125 c 4
 210 102 238 80 273 68 c 4
 293 63 315 61 340 61 c 4
 367 61 390 64 413 70 c 4
 428 75 448 83 459 99 c 6
 511 175 l 6
 513 179 515 182 516 186 c 6
 540 278 l 6
 541 281 541 285 541 288 c 6
 541 289 l 5
 533 509 l 6
 533 512 533 515 532 518 c 6
 508 602 l 6
 507 604 507 607 506 609 c 6
 466 689 l 6
 463 696 456 701 450 705 c 4
 430 716 412 734 376 734 c 4
 370 734 363 734 357 733 c 4
290 141 m 5
 230 174 185 233 185 316 c 4
 185 340 189 367 196 395 c 4
 196 396 197 396 197 397 c 4
 213 488 274 567 338 649 c 4
 343 651 347 654 351 658 c 5
 358 658 l 6
 362 658 366 658 371 659 c 4
 373 659 375 660 376 660 c 4
 378 660 380 659 381 659 c 4
 382 658 397 650 403 646 c 5
 437 578 l 5
 459 502 l 5
 466 292 l 5
 445 212 l 5
 399 144 l 5
 386 138 362 137 342 137 c 4
 321 137 300 139 291 141 c 5
 290 141 l 5
EndSplineSet
Validated: 9
EndChar

StartChar: one
Encoding: 49 49 53
Width: 756
Flags: HW
LayerCount: 2
Fore
SplineSet
564 103 m 0
 564 82.5537619751 546.417070956 66 526 66 c 2
 367 68 l 2
 361 66 356 65 350 65 c 0
 340 65 334 67 326 69 c 2
 270 70 l 2
 267 70 265 70 262 71 c 2
 174 91 l 2
 158.334858817 95.4757546236 145 108.626449614 145 127 c 0
 145 147.410385578 161.551611125 165 182 165 c 0
 193.985139082 165 207.244759106 161 218 161 c 0
 247 161 281 156 310 150 c 1
 322 234 339 320 341 406 c 2
 344 525 l 1
 316 482 276 451 241 417 c 0
 234 410 223 406 214 406 c 0
 194.078156998 406 177 423.078432065 177 443 c 0
 177 453 181 463 188 470 c 0
 221.088681175 503.088681175 274.214530125 543.759509046 292 586 c 0
 298 601 318 634 329 652 c 0
 337.413318311 660.413318311 342.518141873 677 366 677 c 0
 387.88388796 677 395.451379221 665.097241559 400 656 c 0
 406.545342103 645.091096496 419 592.121881451 419 583 c 0
 419 581 420 578 420 575 c 2
 416 403 l 1
 416 399 l 1
 396 223 l 1
 395 222 l 1
 385 143 l 1
 527 141 l 2
 546.952382822 141 564 123.417070956 564 103 c 0
EndSplineSet
Validated: 1
EndChar

StartChar: two
Encoding: 50 50 54
Width: 744
Flags: HW
LayerCount: 2
Fore
SplineSet
500 507 m 0
 500 569.000767816 444.907984218 611 383 611 c 0
 376 611 369 611 362 610 c 0
 360 610 359 609 357 609 c 0
 356 609 355 609 354 609 c 0
 325 609 293 608 283 592 c 1
 263 524 l 1
 274 436 l 1
 274 431 l 2
 274 410.589614422 257.448388875 393 237 393 c 0
 217.551961819 393 201.241532292 408.067741666 199 426 c 2
 187 522 l 1
 187 527 l 2
 187 531 188 534 189 538 c 2
 213 618 l 2
 219.003174747 630.006349494 224.553612114 640.553612114 233 649 c 0
 262 678 303 684 351 684 c 0
 352 684 353 684 354 684 c 0
 364 685 373 686 383 686 c 0
 486.750483331 686 574 610.287511894 574 506 c 0
 574 482 569 458 559 433 c 0
 559 432 558 431 558 430 c 0
 525 364 510 297 469 233 c 1
 447 186 403 156 356 136 c 1
 637 132 l 2
 656.421882749 132 674 114.921567935 674 95 c 0
 674 74.5896144225 657.448388875 57 637 57 c 2
 328 61 l 2
 326 61 324 62 322 62 c 2
 162 90 l 2
 145.305742469 92.7823762552 131 106.988685307 131 128 c 0
 131 154.128421494 152.356814148 168 177 168 c 0
 203 168 232 176 260 183 c 0
 306 194 357 214 385 242 c 0
 394.974911305 251.974911305 399.110095946 259.220191892 405 271 c 0
 441 326 459 399 490 462 c 0
 496 478 500 493 500 507 c 0
EndSplineSet
Validated: 1
EndChar

StartChar: three
Encoding: 51 51 55
Width: 760
Flags: HW
LayerCount: 2
Fore
SplineSet
179 164 m 4
 179 185.817686667 194.164275807 201 216 201 c 4
 226 201 236 198 243 191 c 4
 252 182 253 170 255 156 c 4
 257 153 260 151 262 149 c 4
 285.301246363 125.698753637 308.798515823 112.555555556 334 112.555555556 c 2
 348 113 l 6
 387 113 432 120 472 124 c 5
 475 129 480 135 481 138 c 4
 492.997282053 167.993205132 523 211.767690218 523 240 c 4
 523 244 523 248 523 252 c 4
 523 272.050040213 518.379263572 280.620736428 509 290 c 4
 500 299 484 308 462 318 c 4
 443 326 421 336 400 352 c 5
 308 363 l 6
 288.672296137 365.415962983 275 379.017838379 275 400 c 4
 275 420.346457345 288.20396347 434.650495434 307 437 c 6
 356 444 l 5
 386 459 l 6
 390 461 389 462 397 464 c 4
 441 477 501 519 501 571 c 4
 501 578 500 585 498 592 c 4
 490 603 482 614 472 624 c 4
 446 650 415 665 387 665 c 4
 382 665 377 664 372 663 c 5
 367 663 l 5
 317 659 273 627 220 585 c 4
 209.760525824 577.320394368 200.602068559 567 184 567 c 4
 162.182313333 567 147 582.164275807 147 604 c 4
 147 615 152 627 161 634 c 4
 216 677 275 730 359 737 c 4
 369 739 378 740 388 740 c 4
 466 740 530 682 564 628 c 4
 571.912790968 612.174418065 576 589.374523991 576 572 c 4
 576 491.345825894 512.733018498 434.191848879 454 406 c 5
 489 383 528 377 562 343 c 4
 581.771835036 323.228164964 597 293.653815764 597 255 c 4
 598 250 598 244 598 239 c 4
 598 198 579 166 566 142 c 4
 550.956632544 111.913265088 543.10393875 88.1039387501 521 66 c 4
 513.9900724 58.9900724003 506.791475779 51 490 51 c 4
 444 47 399 38 349 38 c 4
 340 38 330 38 321 39 c 4
 267 43 221 79 191 116 c 4
 182 127 182 142 179 158 c 4
 179 160 179 162 179 164 c 4
EndSplineSet
Validated: 1
EndChar

StartChar: four
Encoding: 52 52 56
Width: 748
Flags: HW
LayerCount: 2
Fore
SplineSet
673 316 m 4
 673 294.182313333 657.835724193 279 636 279 c 6
 631 279 l 5
 614 281 598 282 582 284 c 5
 581 227 577 170 573 113 c 4
 570.814095118 93.3268560635 557.716641745 79 536 79 c 4
 514.182313333 79 499 94.1642758072 499 116 c 4
 499 117 499 118 499 119 c 4
 504 176 506 234 507 291 c 5
 426 298 348 304 269 328 c 4
 263 330 253 331 238 331 c 6
 228 331 l 6
 206.182313333 331 191 346.164275807 191 368 c 4
 191 373 191 377 193 382 c 6
 276 582 l 5
 295 721 l 6
 297.347607112 739.780856892 311.638878255 753 332 753 c 4
 353.817686667 753 369 737.835724193 369 716 c 6
 369 711 l 5
 349 567 l 6
 349 564 348 561 347 558 c 6
 283 402 l 5
 350.182002716 379.605999095 428.601570579 372.191874354 506 366 c 5
 505 384 504 403 503 421 c 5
 503 428 l 5
 514 540 l 5
 499 700 l 5
 499 704 l 6
 499 725.817686667 514.164275807 741 536 741 c 4
 556.965606968 741 570.581075689 727.351394484 573 708 c 6
 589 544 l 5
 589 536 l 5
 578 424 l 5
 580 403 580 381 581 360 c 5
 601 358 621 355 641 353 c 4
 659.780856892 350.652392888 673 336.361121745 673 316 c 4
EndSplineSet
Validated: 1
EndChar

StartChar: five
Encoding: 53 53 57
Width: 772
Flags: HW
LayerCount: 2
Fore
SplineSet
200 587 m 4
 200 630.178099521 215.247053155 669 258 669 c 4
 276 669 289 662 301 655 c 4
 304 656 308 657 312 657 c 6
 488 677 l 5
 492 677 l 6
 513.817686667 677 529 661.835724193 529 640 c 4
 529 619.034393032 515.351394484 605.418924311 496 603 c 6
 322 583 l 5
 314 581 306 579 292 579 c 4
 286 579 280 579 275 582 c 5
 275 561 278 539 278 516 c 4
 278 491.123794203 269 463.851443283 269 438 c 4
 269 428 270 417 272 406 c 5
 309.865019631 423.21137256 336.697765057 445 388 445 c 4
 390 445 392 445 394 445 c 4
 417 441 433 431 444 424 c 4
 460 414 468 409 480 409 c 6
 489 409 l 5
 541.49933435 403.473754279 567 349.908523844 567 297 c 4
 567 274 563 252 553 233 c 4
 524.579667422 176.159334843 470.111886923 75 372 75 c 4
 340 75 316 88 299 97 c 4
 283 105 273 110 265 111 c 4
 245.217414818 113.472823148 231 126.329277166 231 148 c 4
 231 169.817686667 246.164275807 185 268 185 c 4
 269 185 270 185 271 185 c 4
 298 183 318 172 333 164 c 4
 350 155 363 149 373 149 c 4
 392 149 409 158 427 176 c 4
 452 201 472 240 487 269 c 4
 490 275 492 287 492 299 c 4
 492 314 487 331 481 334 c 4
 446 334 420 351 405 360 c 4
 395 366 388 369 384 370 c 4
 372 369 356 366 349 361 c 4
 336 352 324 347 313 342 c 4
 297.234376456 335.1025397 280 329.872122732 280 322 c 4
 274.74836456 306.245093681 263.473901844 295 244 295 c 4
 222.182313333 295 207 310.164275807 207 332 c 4
 207 363.874004454 194 398.430972385 194 437 c 4
 194 464.600514191 202 485.925911748 202 519 c 4
 202 541 200 565 200 587 c 4
EndSplineSet
Validated: 1
EndChar

StartChar: six
Encoding: 54 54 58
Width: 764
Flags: HW
LayerCount: 2
Fore
SplineSet
217 408 m 2
 217 399 l 2
 215 387 215 376 215 364 c 0
 215 292 244 225 293 176 c 2
 310 159 l 2
 327.268826757 141.731173243 362.163716046 101 384 101 c 2
 397 101 l 2
 411 101 424 106 441 116 c 0
 444 118 447 119 451 120 c 0
 497.497647678 130.730226387 507.083961767 182.545751486 515 234 c 0
 516 242 517 250 517 258 c 0
 517 295.504921977 506.022636112 333 471 333 c 0
 467 333 462 332 456 331 c 0
 409 321 349 315 298 312 c 1
 291.620227008 299.240454016 280.628661184 291 264 291 c 0
 242.182313333 291 227 306.164275807 227 328 c 2
 227 335 l 2
 230 351 231 365 241 375 c 0
 248 382 258 385 267 385 c 0
 316 386 390 395 440 405 c 0
 450 407 461 408 471 408 c 0
 536.726105651 408 571.806039386 361.576849021 585 311 c 0
 590 294 592 276 592 258 c 0
 592 246 591 234 589 222 c 0
 576.965632405 140.768018735 549.711152529 71.7381768567 475 49 c 1
 454 37 428 26 397 26 c 0
 317.578831521 26 290.943641645 75.1289461739 251 112 c 0
 247 115 244 119 240 123 c 0
 177 186 140 272 140 364 c 0
 140 377 140 390 142 404 c 0
 141 418 140 432 140 446 c 0
 140 542.958343668 169.923776756 622.923776756 223 676 c 0
 252 705 289 726 334 733 c 1
 342 733 l 1
 413 729 482 719 549 709 c 0
 567.780856892 706.652392888 581 692.361121745 581 672 c 0
 581 650.182313333 565.835724193 635 544 635 c 0
 538 635 533 636 527 637 c 0
 465 646 403 654 342 658 c 1
 315 653 294 641 276 623 c 0
 239 586 215 518 215 445 c 0
 215 432 216 420 217 408 c 2
EndSplineSet
Validated: 1
EndChar

StartChar: seven
Encoding: 55 55 59
Width: 760
Flags: HW
LayerCount: 2
Fore
SplineSet
127 635 m 6
 106.177147278 635 91 650.704796881 91 672 c 4
 91 693.817686667 106.164275807 709 128 709 c 6
 621 701 l 6
 641.822852722 701 657 685.295203119 657 664 c 4
 657 657 656 650 652 644 c 6
 480 375 l 5
 594 344 l 6
 609.754906319 338.74836456 621 327.473901844 621 308 c 4
 621 286.182313333 605.835724193 271 584 271 c 4
 581 271 577 271 574 272 c 6
 437 309 l 5
 304 100 l 6
 298 90 285 83 272 83 c 4
 250.182313333 83 235 98.1642758072 235 120 c 4
 235 127 236 134 240 140 c 6
 362 330 l 5
 266 356 l 6
 250.245093681 361.25163544 239 372.526098156 239 392 c 4
 239 413.817686667 254.164275807 429 276 429 c 4
 279 429 283 429 286 428 c 6
 404 396 l 5
 552 628 l 5
 127 635 l 6
EndSplineSet
Validated: 1
EndChar

StartChar: eight
Encoding: 56 56 60
Width: 748
Flags: HW
LayerCount: 2
Fore
SplineSet
369 136 m 0
 351 136 325 138 302 145 c 0
 284 150 268 159 261 166 c 0
 255 172 254 175 254 182 c 2
 254 183 l 2
 254 233 278 279 316 317 c 0
 330 331 346 345 362 359 c 1
 368 354 374 347 382 344 c 0
 409 317 433 290 452 264 c 0
 467 243 478 222 483 201 c 1
 478 192 461 174 454 167 c 0
 443 156 434 149 425 145 c 0
 414 140 398 136 369 136 c 0
179 182 m 2
 179 92.454431536 283.934479886 61 369 61 c 0
 404 61 432 65 457 77 c 0
 487 91 507 114 528 137 c 0
 540 150 558 172 558 201 c 0
 558 205 558 211 557 215 c 0
 549 250 533 280 513 307 c 0
 485 346 452 379 420 412 c 1
 446 438 471 467 489 500 c 0
 504 527 514 557 514 590 c 0
 514 591 514 592 514 593 c 0
 509 658 449 705 385 705 c 0
 373 705 367 703 354 702 c 0
 333 700 296 696 262 688 c 0
 233.024296219 680.273145658 204.623770137 671.623770137 185 652 c 0
 176 643 167 628 167 610 c 0
 167 597 163 581 163 566 c 0
 163 535 176 509 193 492 c 0
 209 476 227 467 241 459 c 0
 255 451 265 445 270 440 c 0
 271 439 271 438 272 438 c 2
 305 408 l 1
 290 395 277 384 263 370 c 0
 215 322 179 257 179 183 c 2
 179 182 l 2
384 630 m 0
 408 630 436 613 439 589 c 0
 439 573 433 555 423 536 c 0
 410 513 391 489 368 466 c 1
 362 470 356 472 349 472 c 2
 347 472 l 1
 322 494 l 2
 298.120233991 517.879766009 265.624667081 525.375332919 246 545 c 0
 240 551 238 555 238 566 c 0
 238 574 241 591 242 602 c 1
 268 617 332 623 363 627 c 0
 372 628 376 630 384 630 c 0
EndSplineSet
Validated: 9
EndChar

StartChar: nine
Encoding: 57 57 61
Width: 768
Flags: HW
LayerCount: 2
Fore
SplineSet
356 623 m 2
 344 623 328 630 319 630 c 0
 308 630 302 626 295 619 c 0
 276 600 264 557 261 521 c 0
 259 497 253 475 253 452 c 0
 253 391 323 345 380 345 c 0
 394 345 465 377 485 377 c 0
 507 377 522 362 522 340 c 0
 522 330 519 320 512 313 c 0
 504 305 498 305 488 300 c 0
 479 295 404 271 380 271 c 0
 280 271 179 346 179 452 c 0
 179 482 185 502 187 527 c 0
 191 584 208 638 242 672 c 0
 260 690 285 705 319 705 c 0
 333 705 347 702 361 698 c 0
 368 699 375 699 382 699 c 0
 476 699 523 643 553 578 c 1
 575 545 599 512 601 457 c 2
 601 453 l 2
 600 445 600 436 600 427 c 0
 600 387 608 341 613 301 c 1
 613 296 l 2
 613 152 569 23 424 23 c 0
 383 23 350 23 316 35 c 0
 289 45 265 61 241 85 c 0
 193 133 142 186 104 249 c 0
 100 255 99 261 99 268 c 0
 99 290 114 305 136 305 c 0
 149 305 162 297 168 287 c 0
 200 234 247 187 295 139 c 0
 314 120 327 111 342 106 c 0
 360 99 384 97 424 97 c 0
 457 97 478 108 493 123 c 0
 527 157 539 225 539 294 c 1
 534 337 525 378 525 426 c 0
 525 436 525 447 526 457 c 0
 525 485 515 499 495 529 c 0
 492 534 488 539 486 544 c 0
 475 568 463 586 451 598 c 0
 434 615 414 624 382 624 c 0
 375 624 368 624 360 623 c 2
 356 623 l 2
EndSplineSet
Validated: 1
EndChar
